<?xml version="1.0" encoding="utf-8"?>
<!-- Generator: Adobe Illustrator 14.0.0, SVG Export Plug-In . SVG Version: 6.00 Build 43363)  -->
<!DOCTYPE svg PUBLIC "-//W3C//DTD SVG 1.1//EN" "http://www.w3.org/Graphics/SVG/1.1/DTD/svg11.dtd">
<svg version="1.1" id="Capa_1" xmlns="http://www.w3.org/2000/svg" xmlns:xlink="http://www.w3.org/1999/xlink" x="0px" y="0px"
	 width="636px" height="624px" viewBox="-25.86 107.445 636 624" enable-background="new -25.86 107.445 636 624"
	 xml:space="preserve">
<g>
	<g>
		<path fill="#EA6B68" stroke="#FFFFFF" stroke-width="20" d="M0,653.458V252.587c0-35.911,29.216-65.128,65.128-65.128h73.041
			v-40.415c0-13.147,10.591-23.738,23.738-23.738h37.129c13.147,0,23.738,10.591,23.738,23.738v40.294h149.733v-40.294
			c0-13.147,10.59-23.738,23.738-23.738h37.129c13.146,0,23.738,10.591,23.738,23.738v40.294h73.039
			c35.912,0,65.129,29.216,65.129,65.128v400.992c0,35.911-29.217,65.127-65.129,65.127H65.128C29.216,718.585,0,689.369,0,653.458z
			 M50.398,653.458c0,8.156,6.695,14.852,14.852,14.852h464.902c8.156,0,14.852-6.695,14.852-14.852v-296.91H50.398V653.458z"/>
	</g>
</g>
<path fill="#009F98" d="M92.031,452.396v-41.512c0-6.209,4.991-11.199,11.2-11.199h41.511c6.208,0,11.2,4.991,11.2,11.199v41.512
	c0,6.208-4.991,11.199-11.2,11.199H103.23C97.022,463.473,92.031,458.483,92.031,452.396z"/>
<path fill="#009F98" d="M190.027,463.473h41.511c6.209,0,11.199-4.99,11.199-11.199v-41.512c0-6.208-4.99-11.199-11.199-11.199
	h-41.511c-6.208,0-11.2,4.991-11.2,11.199v41.512C178.949,458.483,183.94,463.473,190.027,463.473z"/>
<path fill="#009F98" d="M276.823,463.473h41.512c6.209,0,11.199-4.99,11.199-11.199v-41.512c0-6.208-4.99-11.199-11.199-11.199
	h-41.512c-6.209,0-11.199,4.991-11.199,11.199v41.512C265.745,458.483,270.737,463.473,276.823,463.473z"/>
<path fill="#009F98" d="M190.027,548.079h41.511c6.209,0,11.199-4.991,11.199-11.199v-41.512c0-6.208-4.99-11.199-11.199-11.199
	h-41.511c-6.208,0-11.2,4.991-11.2,11.199v41.512C178.949,543.088,183.94,548.079,190.027,548.079z"/>
<path fill="#009F98" d="M276.823,548.079h41.512c6.209,0,11.199-4.991,11.199-11.199v-41.512c0-6.208-4.99-11.199-11.199-11.199
	h-41.512c-6.209,0-11.199,4.991-11.199,11.199v41.512C265.745,543.088,270.737,548.079,276.823,548.079z"/>
<path fill="#009F98" d="M363.741,548.079h41.512c6.209,0,11.199-4.991,11.199-11.199v-41.512c0-6.208-4.99-11.199-11.199-11.199
	h-41.512c-6.209,0-11.199,4.991-11.199,11.199v41.512C352.542,543.088,357.532,548.079,363.741,548.079z"/>
<path fill="#009F98" d="M103.23,548.079h41.511c6.208,0,11.2-4.991,11.2-11.199v-41.512c0-6.208-4.991-11.199-11.2-11.199H103.23
	c-6.208,0-11.2,4.991-11.2,11.199v41.512C92.031,543.088,97.022,548.079,103.23,548.079z"/>
<path fill="#009F98" d="M276.823,632.562h41.512c6.209,0,11.199-4.991,11.199-11.199v-41.512c0-6.208-4.99-11.199-11.199-11.199
	h-41.512c-6.209,0-11.199,4.991-11.199,11.199v41.512C265.745,627.571,270.737,632.562,276.823,632.562z"/>
<path fill="#009F98" d="M190.027,632.562h41.511c6.209,0,11.199-4.991,11.199-11.199v-41.512c0-6.208-4.99-11.199-11.199-11.199
	h-41.511c-6.208,0-11.2,4.991-11.2,11.199v41.512C178.949,627.571,183.94,632.562,190.027,632.562z"/>
<path fill="#009F98" d="M363.741,463.473h41.512c6.209,0,11.199-4.99,11.199-11.199v-41.512c0-6.208-4.99-11.199-11.199-11.199
	h-41.512c-6.209,0-11.199,4.991-11.199,11.199v41.512C352.542,458.483,357.532,463.473,363.741,463.473z"/>
<path fill="#009F98" d="M450.538,548.079h41.512c6.207,0,11.199-4.991,11.199-11.199v-41.512c0-6.208-4.992-11.199-11.199-11.199
	h-41.512c-6.209,0-11.199,4.991-11.199,11.199v41.512C439.46,543.088,444.452,548.079,450.538,548.079z"/>
<path fill="#009F98" d="M363.741,632.562h41.512c6.209,0,11.199-4.991,11.199-11.199v-41.512c0-6.208-4.99-11.199-11.199-11.199
	h-41.512c-6.209,0-11.199,4.991-11.199,11.199v41.512C352.542,627.571,357.532,632.562,363.741,632.562z"/>
</svg>
